<?xml version="1.0" encoding="UTF-8"?>
<svg width="700pt" height="700pt" version="1.1" viewBox="0 0 700 700" xmlns="http://www.w3.org/2000/svg" xmlns:xlink="http://www.w3.org/1999/xlink">
 <defs>
  <symbol id="f" overflow="visible">
   <path d="m28.422-1.7031c-1.4688 0.76172-3 1.3359-4.5938 1.7188-1.5859 0.38281-3.2344 0.57812-4.9531 0.57812-5.1562 0-9.2422-1.4375-12.25-4.3125-3.0117-2.875-4.5156-6.7812-4.5156-11.719s1.5039-8.8438 4.5156-11.719c3.0078-2.8828 7.0938-4.3281 12.25-4.3281 1.7188 0 3.3672 0.19531 4.9531 0.57812 1.5938 0.38672 3.125 0.96094 4.5938 1.7188v6.4062c-1.4805-1.0078-2.9375-1.75-4.375-2.2188s-2.9492-0.70312-4.5312-0.70312c-2.8438 0-5.0859 0.91406-6.7188 2.7344-1.625 1.8242-2.4375 4.3359-2.4375 7.5312 0 3.1992 0.8125 5.7109 2.4375 7.5312 1.6328 1.8242 3.875 2.7344 6.7188 2.7344 1.582 0 3.0938-0.23438 4.5312-0.70312 1.4375-0.47656 2.8945-1.2188 4.375-2.2188z"/>
  </symbol>
  <symbol id="d" overflow="visible">
   <path d="m20.797-16.875c-0.64844-0.3125-1.293-0.53516-1.9375-0.67188-0.64844-0.14453-1.293-0.21875-1.9375-0.21875-1.9062 0-3.375 0.60938-4.4062 1.8281-1.0234 1.2188-1.5312 2.9688-1.5312 5.25v10.688h-7.4219v-23.203h7.4219v3.8125c0.94531-1.5195 2.0352-2.6289 3.2656-3.3281 1.2383-0.69531 2.7227-1.0469 4.4531-1.0469 0.25 0 0.51953 0.011719 0.8125 0.03125 0.28906 0.023437 0.71094 0.070313 1.2656 0.14062z"/>
  </symbol>
  <symbol id="b" overflow="visible">
   <path d="m26.719-11.656v2.1094h-17.328c0.17578 1.7422 0.80078 3.0469 1.875 3.9219 1.082 0.86719 2.5859 1.2969 4.5156 1.2969 1.5625 0 3.1602-0.22656 4.7969-0.6875 1.6328-0.46875 3.3164-1.1719 5.0469-2.1094v5.7188c-1.75 0.65625-3.5078 1.1523-5.2656 1.4844-1.75 0.34375-3.5078 0.51562-5.2656 0.51562-4.1992 0-7.4609-1.0625-9.7812-3.1875-2.3242-2.1328-3.4844-5.1289-3.4844-8.9844 0-3.7812 1.1406-6.7539 3.4219-8.9219 2.2812-2.1758 5.4258-3.2656 9.4375-3.2656 3.6445 0 6.5625 1.1016 8.75 3.2969 2.1875 2.1992 3.2812 5.1367 3.2812 8.8125zm-7.625-2.4688c0-1.4062-0.41406-2.5391-1.2344-3.4062-0.8125-0.86328-1.8867-1.2969-3.2188-1.2969-1.4375 0-2.6055 0.40625-3.5 1.2188-0.89844 0.80469-1.4531 1.9648-1.6719 3.4844z"/>
  </symbol>
  <symbol id="c" overflow="visible">
   <path d="m13.969-10.438c-1.5547 0-2.7188 0.26562-3.5 0.79688-0.78125 0.52344-1.1719 1.293-1.1719 2.3125 0 0.9375 0.3125 1.6719 0.9375 2.2031 0.63281 0.53125 1.5078 0.79688 2.625 0.79688 1.3945 0 2.5664-0.5 3.5156-1.5 0.95703-1 1.4375-2.2539 1.4375-3.7656v-0.84375zm11.328-2.7969v13.234h-7.4844v-3.4375c-0.99219 1.4062-2.1094 2.4336-3.3594 3.0781-1.2422 0.63281-2.75 0.95312-4.5312 0.95312-2.4062 0-4.3594-0.69531-5.8594-2.0938-1.4922-1.4062-2.2344-3.2227-2.2344-5.4531 0-2.7266 0.92969-4.7266 2.7969-6 1.875-1.2695 4.8125-1.9062 8.8125-1.9062h4.375v-0.57812c0-1.1641-0.46484-2.0195-1.3906-2.5625-0.92969-0.55078-2.3711-0.82812-4.3281-0.82812-1.5859 0-3.0625 0.16406-4.4375 0.48438-1.3672 0.3125-2.6328 0.78906-3.7969 1.4219v-5.6562c1.582-0.38281 3.1758-0.67578 4.7812-0.875 1.6016-0.20703 3.2031-0.3125 4.7969-0.3125 4.1875 0 7.207 0.82812 9.0625 2.4844 1.8633 1.6484 2.7969 4.3281 2.7969 8.0469z"/>
  </symbol>
  <symbol id="a" overflow="visible">
   <path d="m11.656-29.781v6.5781h7.6562v5.3125h-7.6562v9.8281c0 1.0859 0.21094 1.8203 0.64062 2.2031 0.4375 0.375 1.2891 0.5625 2.5625 0.5625h3.7969v5.2969h-6.3594c-2.9297 0-5-0.60938-6.2188-1.8281-1.2188-1.2266-1.8281-3.3047-1.8281-6.2344v-9.8281h-3.6875v-5.3125h3.6875v-6.5781z"/>
  </symbol>
  <symbol id="j" overflow="visible">
   <path d="m19.344-19.797v-12.438h7.4531v32.234h-7.4531v-3.3594c-1.0234 1.3672-2.1484 2.3672-3.375 3-1.2305 0.63281-2.6523 0.95312-4.2656 0.95312-2.8555 0-5.2031-1.1328-7.0469-3.4062-1.8359-2.2695-2.75-5.1914-2.75-8.7656 0-3.5703 0.91406-6.4922 2.75-8.7656 1.8438-2.2812 4.1914-3.4219 7.0469-3.4219 1.6016 0 3.0195 0.32422 4.25 0.96875 1.2383 0.64844 2.3672 1.6484 3.3906 3zm-4.8906 15.016c1.5938 0 2.8047-0.57812 3.6406-1.7344 0.83203-1.1641 1.25-2.8516 1.25-5.0625 0-2.207-0.41797-3.8906-1.25-5.0469-0.83594-1.1641-2.0469-1.75-3.6406-1.75-1.5742 0-2.7773 0.58594-3.6094 1.75-0.83594 1.1562-1.25 2.8398-1.25 5.0469 0 2.2109 0.41406 3.8984 1.25 5.0625 0.83203 1.1562 2.0352 1.7344 3.6094 1.7344z"/>
  </symbol>
  <symbol id="i" overflow="visible">
   <path d="m15.906-4.7812c1.5938 0 2.8047-0.57812 3.6406-1.7344 0.83203-1.1641 1.25-2.8516 1.25-5.0625 0-2.207-0.41797-3.8906-1.25-5.0469-0.83594-1.1641-2.0469-1.75-3.6406-1.75-1.5859 0-2.8047 0.58594-3.6562 1.75-0.84375 1.168-1.2656 2.8516-1.2656 5.0469 0 2.1992 0.42188 3.8828 1.2656 5.0469 0.85156 1.168 2.0703 1.75 3.6562 1.75zm-4.9219-15.016c1.0195-1.3516 2.1484-2.3516 3.3906-3 1.2383-0.64453 2.6641-0.96875 4.2812-0.96875 2.8633 0 5.2109 1.1406 7.0469 3.4219 1.832 2.2734 2.75 5.1953 2.75 8.7656 0 3.5742-0.91797 6.4961-2.75 8.7656-1.8359 2.2734-4.1836 3.4062-7.0469 3.4062-1.6172 0-3.043-0.32031-4.2812-0.95312-1.2422-0.64453-2.3711-1.6445-3.3906-3v3.3594h-7.4219v-32.234h7.4219z"/>
  </symbol>
  <symbol id="h" overflow="visible">
   <path d="m0.51562-23.203h7.4219l6.2344 15.75 5.2969-15.75h7.4219l-9.7656 25.406c-0.98047 2.5703-2.1211 4.375-3.4219 5.4062-1.3047 1.0312-3.0273 1.5469-5.1719 1.5469h-4.2812v-4.875h2.3125c1.2578 0 2.1758-0.19922 2.75-0.59375 0.57031-0.39844 1.0156-1.1172 1.3281-2.1562l0.21875-0.64062z"/>
  </symbol>
  <symbol id="g" overflow="visible">
   <path d="m3.5625-23.203h7.4219v23.203h-7.4219zm0-9.0312h7.4219v6.0469h-7.4219z"/>
  </symbol>
  <symbol id="q" overflow="visible">
   <path d="m0.64062-23.203h7.4219l5.7812 16.031 5.75-16.031h7.4375l-9.1406 23.203h-8.1406z"/>
  </symbol>
  <symbol id="p" overflow="visible">
   <path d="m25.422-29.953v6.5469c-1.6992-0.75781-3.3594-1.332-4.9844-1.7188-1.6172-0.38281-3.1406-0.57812-4.5781-0.57812-1.8984 0-3.3047 0.26562-4.2188 0.79688-0.90625 0.52344-1.3594 1.3359-1.3594 2.4375 0 0.82422 0.30469 1.4688 0.92188 1.9375 0.61328 0.46094 1.7266 0.85547 3.3438 1.1875l3.3906 0.6875c3.4375 0.6875 5.8789 1.7344 7.3281 3.1406 1.457 1.4062 2.1875 3.4141 2.1875 6.0156 0 3.4062-1.0156 5.9453-3.0469 7.6094-2.0234 1.6562-5.1094 2.4844-9.2656 2.4844-1.9609 0-3.9297-0.1875-5.9062-0.5625-1.9688-0.36328-3.9453-0.91016-5.9219-1.6406v-6.7344c1.9766 1.0547 3.8906 1.8438 5.7344 2.375s3.6172 0.79688 5.3281 0.79688c1.7383 0 3.0703-0.28906 4-0.875 0.92578-0.58203 1.3906-1.4102 1.3906-2.4844 0-0.96875-0.32031-1.7109-0.95312-2.2344-0.625-0.53125-1.875-1.0039-3.75-1.4219l-3.0938-0.67188c-3.0938-0.66406-5.3555-1.7227-6.7812-3.1719-1.4297-1.4453-2.1406-3.3984-2.1406-5.8594 0-3.082 0.99219-5.4531 2.9844-7.1094 1.9883-1.6562 4.8477-2.4844 8.5781-2.4844 1.6953 0 3.4414 0.13281 5.2344 0.39062 1.7891 0.25 3.6484 0.63281 5.5781 1.1406z"/>
  </symbol>
  <symbol id="e" overflow="visible">
   <path d="m3.5625-32.234h7.4219v32.234h-7.4219z"/>
  </symbol>
  <symbol id="o" overflow="visible">
   <path d="m18.828-32.234v4.875h-4.0938c-1.0547 0-1.7891 0.19531-2.2031 0.57812-0.41797 0.375-0.625 1.0312-0.625 1.9688v1.6094h6.3438v5.3125h-6.3438v17.891h-7.4062v-17.891h-3.6875v-5.3125h3.6875v-1.6094c0-2.5312 0.70312-4.3984 2.1094-5.6094 1.4062-1.207 3.5859-1.8125 6.5469-1.8125z"/>
  </symbol>
  <symbol id="n" overflow="visible">
   <path d="m26.891-14.125v14.125h-7.4688v-10.766c0-2.0312-0.046875-3.4258-0.14062-4.1875-0.085938-0.75781-0.23438-1.3203-0.45312-1.6875-0.29297-0.47656-0.6875-0.85156-1.1875-1.125-0.49219-0.26953-1.0547-0.40625-1.6875-0.40625-1.5547 0-2.7734 0.60156-3.6562 1.7969-0.875 1.1992-1.3125 2.8555-1.3125 4.9688v11.406h-7.4219v-32.234h7.4219v12.438c1.1133-1.3516 2.2969-2.3516 3.5469-3 1.2578-0.64453 2.6484-0.96875 4.1719-0.96875 2.6758 0 4.707 0.82422 6.0938 2.4688 1.3945 1.6484 2.0938 4.0391 2.0938 7.1719z"/>
  </symbol>
  <symbol id="m" overflow="visible">
   <path d="m3.8906-30.922h8.9062l11.25 21.203v-21.203h7.5625v30.922h-8.9062l-11.25-21.219v21.219h-7.5625z"/>
  </symbol>
  <symbol id="l" overflow="visible">
   <path d="m3.8906-30.922h13.234c3.9375 0 6.957 0.875 9.0625 2.625 2.1016 1.7422 3.1562 4.2266 3.1562 7.4531 0 3.25-1.0547 5.75-3.1562 7.5-2.1055 1.7422-5.125 2.6094-9.0625 2.6094h-5.25v10.734h-7.9844zm7.9844 5.7812v8.625h4.4062c1.5391 0 2.7344-0.375 3.5781-1.125s1.2656-1.8164 1.2656-3.2031c0-1.375-0.42188-2.4297-1.2656-3.1719-0.84375-0.75-2.0391-1.125-3.5781-1.125z"/>
  </symbol>
  <symbol id="k" overflow="visible">
   <path d="m3.5625-23.203h7.4219v22.781c0 3.1133-0.75 5.4883-2.25 7.125-1.4922 1.6328-3.6523 2.4531-6.4844 2.4531h-3.6562v-4.875h1.2812c1.4062 0 2.3672-0.32031 2.8906-0.95312 0.53125-0.63672 0.79688-1.8867 0.79688-3.75zm0-9.0312h7.4219v6.0469h-7.4219z"/>
  </symbol>
 </defs>
 <g>
  <path d="m590.97 37.332h-481.94v320.73h481.94zm-12.727 308h-452.24l75.516-140c3.3945 0.84766 6.7891 1.6953 10.184 1.6953 8.4844 0 16.121-3.3945 22.062-8.4844l76.363 60.242c-2.5469 4.2422-3.3945 10.184-3.3945 15.273 0 18.668 15.273 33.938 33.938 33.938 18.668 0 33.938-15.273 33.938-33.938 0-6.7891-2.5469-13.574-5.9375-19.516l111.15-114.55c5.0898 3.3945 11.879 5.9375 18.668 5.9375 18.668 0 33.938-15.273 33.938-33.938 0-18.668-15.273-33.938-33.938-33.938-18.668 0-33.938 15.273-33.938 33.938 0 7.6367 2.5469 13.574 5.9375 19.516l-111.16 114.55c-5.0898-3.3945-11.879-5.9375-18.668-5.9375-8.4844 0-16.121 3.3945-22.062 8.4844l-76.363-60.242c2.5469-5.0898 4.2422-10.184 4.2422-16.121 0-18.668-15.273-33.938-33.938-33.938-18.668 0-33.938 15.273-33.938 33.938 0 10.184 5.0898 20.363 12.727 26.305l-68.727 127.27v-275.76h456.48v295.27zm-366.55-151.03c-11.879 0-21.211-9.332-21.211-21.211s9.332-21.211 21.211-21.211c11.879 0 21.211 9.332 21.211 21.211 0.003906 11.875-9.332 21.211-21.211 21.211zm150.18 79.758c0 11.879-9.332 21.211-21.211 21.211-11.879 0-21.211-9.332-21.211-21.211s9.332-21.211 21.211-21.211c11.879-0.003906 21.211 9.332 21.211 21.211zm115.39-162.06c0-11.879 9.332-21.211 21.211-21.211s21.211 9.332 21.211 21.211-9.332 21.211-21.211 21.211-21.211-9.332-21.211-21.211z" fill="#000100"/>
  <path d="m404.3 392.85h221.45v-390.3h-551.52v390.3h221.45l-13.574 49.215h-36.484v12.727h207.88v-12.727h-35.637zm-317.34-12.727v-364.85h526.06v364.85h-526.06zm208.73 61.941 13.574-49.211h82.305l13.574 49.211z" fill="#000100"/>
  <path d="m399.21 259.64h12.727v57.695h-12.727z" fill="#000100"/>
  <path d="m444.18 240.97h12.727v75.516h-12.727z" fill="#000100"/>
  <path d="m489.15 217.21h12.727v99.273h-12.727z" fill="#000100"/>
  <path d="m534.12 185.82h12.727v130.67h-12.727z" fill="#000100"/>
  <path d="m616.43 479.39-38.184-44.969c-11.879-13.574-33.09-15.273-46.668-3.3945l-5.9375 5.0898-6.7891-7.6367-9.332 8.4844 6.7891 7.6367-5.9414 5.0898c-13.574 11.879-15.273 33.09-3.3945 46.668l38.184 44.969c16.969 19.516 46.668 22.062 67.031 5.0898 18.664-16.969 21.211-47.512 4.2422-67.027zm-13.578 57.695c-14.426 12.727-36.484 11.031-48.363-3.3945l-38.184-44.969c-7.6367-8.4844-6.7891-22.062 2.5469-28.848l5.9375-5.0898 6.7891 7.6367c-5.0898 7.6367-5.0898 18.668 1.6953 26.305 7.6367 9.332 22.062 10.184 31.395 2.5469 9.332-7.6367 10.184-22.062 2.5469-31.395-5.9375-6.7891-16.121-10.184-25.453-5.9375l-6.7891-7.6367 5.9375-5.0898c8.4844-7.6367 21.211-6.7891 28.848 2.5469l38.184 44.969c11.031 13.57 9.3359 35.629-5.0898 48.355zm-46.664-68.727c3.3945 4.2422 2.5469 10.184-0.84766 13.574-4.2422 3.3945-10.184 2.5469-13.574-0.84766-3.3945-4.2422-2.5469-10.184 0.84766-13.574 4.2383-4.2422 10.18-3.3945 13.574 0.84766z" fill="#000100"/>
  <path d="m149.76 402.18c-42.426 0-78.062 34.789-78.062 78.062 0 43.273 34.789 78.062 78.062 78.062 43.273 0 78.062-34.789 78.062-78.062-0.003906-43.277-34.789-78.062-78.062-78.062zm0 142.54c-35.637 0-65.332-28.848-65.332-65.332 0-35.637 28.848-65.332 65.332-65.332 36.484 0 65.332 28.848 65.332 65.332s-29.695 65.332-65.332 65.332z" fill="#000100"/>
  <path d="m143.82 425.94h12.727v13.574h-12.727z" fill="#000100"/>
  <path d="m143.82 520.97h12.727v13.574h-12.727z" fill="#000100"/>
  <path d="m183.63 437.16 9.0156 8.9844-9.582 9.6172-9.0156-8.9844z" fill="#000100"/>
  <path d="m116.41 522.85-9.0156-8.9844 9.582-9.6172 9.0156 8.9844z" fill="#000100"/>
  <path d="m190.48 473.45h13.574v12.727h-13.574z" fill="#000100"/>
  <path d="m96.305 473.45h13.574v12.727h-13.574z" fill="#000100"/>
  <path d="m183.27 521.94-9.582-9.6172 9.0156-8.9805 9.582 9.6172z" fill="#000100"/>
  <path d="m116.86 455.49-9.582-9.6172 9.0156-8.9805 9.582 9.6172z" fill="#000100"/>
  <path d="m156.55 451.39h-12.73v31.395l11.879 12.727 9.3359-9.332-8.4844-8.4883z" fill="#000100"/>
  <g>
   <use x="70" y="687.273438" xlink:href="#f"/>
   <use x="101.132813" y="687.273438" xlink:href="#d"/>
   <use x="122.058594" y="687.273438" xlink:href="#b"/>
   <use x="150.828125" y="687.273438" xlink:href="#c"/>
   <use x="179.457031" y="687.273438" xlink:href="#a"/>
   <use x="199.738281" y="687.273438" xlink:href="#b"/>
   <use x="228.511719" y="687.273438" xlink:href="#j"/>
   <use x="273.648438" y="687.273438" xlink:href="#i"/>
   <use x="304.015625" y="687.273438" xlink:href="#h"/>
   <use x="346.441406" y="687.273438" xlink:href="#f"/>
   <use x="377.574219" y="687.273438" xlink:href="#d"/>
   <use x="398.496094" y="687.273438" xlink:href="#b"/>
   <use x="427.269531" y="687.273438" xlink:href="#c"/>
   <use x="455.898438" y="687.273438" xlink:href="#a"/>
   <use x="476.179688" y="687.273438" xlink:href="#g"/>
   <use x="490.722656" y="687.273438" xlink:href="#q"/>
   <use x="518.375" y="687.273438" xlink:href="#b"/>
   <use x="561.917969" y="687.273438" xlink:href="#p"/>
   <use x="592.472656" y="687.273438" xlink:href="#a"/>
   <use x="612.753906" y="687.273438" xlink:href="#c"/>
   <use x="641.378906" y="687.273438" xlink:href="#e"/>
   <use x="655.921875" y="687.273438" xlink:href="#e"/>
   <use x="70" y="729.695312" xlink:href="#o"/>
   <use x="197.5" y="729.695312" xlink:href="#a"/>
   <use x="217.78125" y="729.695312" xlink:href="#n"/>
   <use x="291.527344" y="729.695312" xlink:href="#m"/>
   <use x="431.351563" y="729.695312" xlink:href="#l"/>
   <use x="512.511719" y="729.695312" xlink:href="#k"/>
   <use x="580.976562" y="729.695312" xlink:href="#a"/>
  </g>
 </g>
</svg>
